<svg width="25" height="25" viewBox="0 0 25 25" fill="none" xmlns="http://www.w3.org/2000/svg">
<mask id="mask0_3090_3074" style="mask-type:alpha" maskUnits="userSpaceOnUse" x="0" y="0" width="25" height="25">
<rect x="0.5" y="0.5" width="24" height="24" fill="white"/>
</mask>
<g mask="url(#mask0_3090_3074)">
<path d="M9.6923 3.24995V1.75H15.3077V3.24995H9.6923ZM11.75 14.3077H13.25V8.6923H11.75V14.3077ZM12.5 22C11.3307 22 10.2308 21.7769 9.2 21.3307C8.16923 20.8846 7.26795 20.2756 6.49615 19.5038C5.72437 18.732 5.1154 17.8307 4.66925 16.8C4.22308 15.7692 4 14.6692 4 13.5C4 12.3307 4.22308 11.2308 4.66925 10.2C5.1154 9.16923 5.72437 8.26795 6.49615 7.49615C7.26795 6.72437 8.16923 6.1154 9.2 5.66925C10.2308 5.22308 11.3307 5 12.5 5C13.5013 5 14.4657 5.16988 15.3933 5.50963C16.3208 5.84938 17.182 6.33592 17.9769 6.96925L19.223 5.7231L20.2769 6.77693L19.0307 8.02308C19.664 8.81794 20.1506 9.67915 20.4903 10.6067C20.8301 11.5343 21 12.4987 21 13.5C21 14.6692 20.7769 15.7692 20.3307 16.8C19.8846 17.8307 19.2756 18.732 18.5038 19.5038C17.732 20.2756 16.8307 20.8846 15.8 21.3307C14.7692 21.7769 13.6692 22 12.5 22ZM12.5 20.5C14.4333 20.5 16.0833 19.8166 17.45 18.45C18.8166 17.0833 19.5 15.4333 19.5 13.5C19.5 11.5666 18.8166 9.91664 17.45 8.54998C16.0833 7.18331 14.4333 6.49998 12.5 6.49998C10.5666 6.49998 8.91664 7.18331 7.54998 8.54998C6.18331 9.91664 5.49997 11.5666 5.49997 13.5C5.49997 15.4333 6.18331 17.0833 7.54998 18.45C8.91664 19.8166 10.5666 20.5 12.5 20.5Z" fill="white"/>
</g>
</svg>
