<svg width="25" height="24" viewBox="0 0 25 24" fill="none" xmlns="http://www.w3.org/2000/svg">
<mask id="mask0_720_2227" style="mask-type:alpha" maskUnits="userSpaceOnUse" x="0" y="0" width="25" height="24">
<rect x="0.5" width="24" height="24" fill="#D9D9D9"/>
</mask>
<g mask="url(#mask0_720_2227)">
<path d="M20.7 9.29999C21.0833 9.29999 21.4292 9.45415 21.7375 9.76249C22.0458 10.0708 22.2 10.4167 22.2 10.8V11.8C22.2 11.8833 22.1917 11.975 22.175 12.075C22.1583 12.175 22.1333 12.2667 22.1 12.35L19.45 18.65C19.3167 18.95 19.0917 19.2 18.775 19.4C18.4583 19.6 18.1333 19.7 17.8 19.7H9.55C9.13334 19.7 8.77917 19.5542 8.4875 19.2625C8.19584 18.9708 8.05 18.6167 8.05 18.2V9.92499C8.05 9.72499 8.09167 9.52915 8.175 9.33749C8.25834 9.14582 8.36667 8.98332 8.5 8.84999L13.575 3.82499C13.6917 3.70832 13.8167 3.63332 13.95 3.59999C14.0833 3.56665 14.2083 3.57499 14.325 3.62499C14.4417 3.67499 14.525 3.76665 14.575 3.89999C14.625 4.03332 14.6333 4.19165 14.6 4.37499L13.6 9.29999H20.7ZM5.3 19.7C4.88334 19.7 4.52917 19.5542 4.2375 19.2625C3.94584 18.9708 3.8 18.6167 3.8 18.2V10.8C3.8 10.3833 3.94584 10.0292 4.2375 9.73749C4.52917 9.44582 4.88334 9.29999 5.3 9.29999H5.85C6.26667 9.29999 6.62084 9.44582 6.9125 9.73749C7.20417 10.0292 7.35 10.3833 7.35 10.8V18.225C7.35 18.6417 7.20417 18.9917 6.9125 19.275C6.62084 19.5583 6.26667 19.7 5.85 19.7H5.3Z" fill="#6283FD"/>
</g>
</svg>
