<svg width="25" height="25" viewBox="0 0 25 25" fill="none" xmlns="http://www.w3.org/2000/svg">
<mask id="mask0_1030_4615" style="mask-type:alpha" maskUnits="userSpaceOnUse" x="0" y="0" width="25" height="25">
<rect x="0.645752" y="0.5" width="24" height="24" fill="#D9D9D9"/>
</mask>
<g mask="url(#mask0_1030_4615)">
<path d="M20.8457 9.79992C21.2291 9.79992 21.5749 9.95408 21.8832 10.2624C22.1916 10.5708 22.3457 10.9166 22.3457 11.2999V12.2999C22.3457 12.3862 22.3374 12.4785 22.3207 12.5771C22.3041 12.6756 22.2791 12.7666 22.2457 12.8499L19.5946 19.1529C19.462 19.4509 19.2374 19.6999 18.9207 19.8999C18.6041 20.0999 18.276 20.1999 17.9366 20.1999H8.19574V9.79992L13.7207 4.32492C13.8374 4.20825 13.9624 4.13325 14.0957 4.09992C14.2291 4.06659 14.3541 4.08325 14.4707 4.14992C14.5874 4.21659 14.6707 4.31659 14.7207 4.44992C14.7707 4.58325 14.7791 4.72492 14.7457 4.87492L13.7457 9.79992H20.8457ZM8.89574 10.0999V19.4999H17.9457C18.1291 19.4999 18.3166 19.4499 18.5082 19.3499C18.6999 19.2499 18.8457 19.0833 18.9457 18.8499L21.6457 12.4999V11.2999C21.6457 11.0666 21.5707 10.8749 21.4207 10.7249C21.2707 10.5749 21.0791 10.4999 20.8457 10.4999H12.8957L13.9957 5.04992L8.89574 10.0999ZM5.44574 20.1999C5.03324 20.1999 4.68011 20.053 4.38636 19.7593C4.09261 19.4655 3.94574 19.1124 3.94574 18.6999V11.2999C3.94574 10.8874 4.09261 10.5343 4.38636 10.2405C4.68011 9.94679 5.03324 9.79992 5.44574 9.79992H8.19574V10.4999H5.44574C5.21241 10.4999 5.02074 10.5749 4.87074 10.7249C4.72074 10.8749 4.64574 11.0666 4.64574 11.2999V18.6999C4.64574 18.9333 4.72074 19.1249 4.87074 19.2749C5.02074 19.4249 5.21241 19.4999 5.44574 19.4999H8.19574V20.1999H5.44574Z" fill="#3B3DFF"/>
</g>
</svg>
