<svg width="25" height="25" viewBox="0 0 25 25" fill="none" xmlns="http://www.w3.org/2000/svg">
<mask id="mask0_1030_4620" style="mask-type:alpha" maskUnits="userSpaceOnUse" x="0" y="0" width="25" height="25">
<rect x="0.645752" y="0.5" width="24" height="24" fill="#D9D9D9"/>
</mask>
<g mask="url(#mask0_1030_4620)">
<path d="M4.99575 16.7001C4.67909 16.0334 4.42492 15.3499 4.23325 14.6497C4.04159 13.9494 3.94575 13.2329 3.94575 12.5C3.94575 11.2965 4.17401 10.1656 4.63053 9.10705C5.08706 8.04855 5.70663 7.1278 6.48923 6.3448C7.27185 5.5618 8.19214 4.94192 9.2501 4.48517C10.3081 4.02842 11.4385 3.80005 12.6414 3.80005C13.8443 3.80005 14.9754 4.02831 16.0347 4.48482C17.094 4.94136 18.0155 5.56092 18.7991 6.34352C19.5827 7.12614 20.203 8.04643 20.6601 9.1044C21.1172 10.1624 21.3458 11.2928 21.3458 12.4957C21.3458 13.6986 21.1174 14.8297 20.6606 15.889C20.2039 16.9483 19.584 17.8698 18.801 18.6534C18.018 19.437 17.0973 20.0573 16.0388 20.5144C14.9803 20.9715 13.8493 21.2001 12.6458 21.2001C11.9129 21.2001 11.1964 21.1042 10.4961 20.9125C9.79588 20.7209 9.11242 20.4667 8.44575 20.1501L4.86205 21.1985C4.58452 21.2829 4.34159 21.2209 4.13325 21.0126C3.92492 20.8042 3.86294 20.5613 3.9473 20.2838L4.99575 16.7001ZM4.59575 20.5501L7.79575 19.6C8.06242 19.5334 8.29992 19.5001 8.50825 19.5001C8.71659 19.5001 8.94575 19.5667 9.19575 19.7001C9.72909 19.9667 10.2874 20.1667 10.8708 20.3001C11.4541 20.4334 12.0458 20.5 12.6458 20.5C14.8791 20.5 16.7708 19.725 18.3208 18.175C19.8708 16.625 20.6458 14.7334 20.6458 12.5C20.6458 10.2667 19.8708 8.37505 18.3208 6.82505C16.7708 5.27505 14.8791 4.50005 12.6458 4.50005C10.4124 4.50005 8.52075 5.27505 6.97075 6.82505C5.42075 8.37505 4.64575 10.2667 4.64575 12.5C4.64575 13.1 4.71242 13.6917 4.84575 14.2751C4.97909 14.8584 5.17909 15.4167 5.44575 15.9501C5.56242 16.1667 5.62909 16.3959 5.64575 16.6376C5.66242 16.8792 5.62909 17.1167 5.54575 17.35L4.59575 20.5501Z" fill="#FF6A3B"/>
</g>
</svg>
