<svg width="29" height="29" viewBox="0 0 29 29" fill="none" xmlns="http://www.w3.org/2000/svg">
<mask id="mask0_3175_3947" style="mask-type:alpha" maskUnits="userSpaceOnUse" x="0" y="0" width="29" height="29">
<rect x="0.645752" y="0.5" width="28" height="28" fill="#D9D9D9"/>
</mask>
<g mask="url(#mask0_3175_3947)">
<path d="M24.5699 11.0658C25.0096 11.0658 25.4037 11.2401 25.7522 11.5886C26.1008 11.9371 26.275 12.3312 26.275 12.771V14.2289C26.275 14.339 26.2708 14.4554 26.2623 14.5783C26.2538 14.7011 26.2286 14.8156 26.1868 14.9218L22.9579 22.5423C22.7966 22.9073 22.5245 23.2138 22.1416 23.4616C21.7586 23.7095 21.3702 23.8334 20.9764 23.8334H9.24015V11.0658L15.6718 4.55048C15.8256 4.39142 16.006 4.29133 16.2128 4.25021C16.4196 4.20906 16.6114 4.23834 16.7883 4.33805C16.9623 4.43779 17.0912 4.58711 17.175 4.78603C17.2588 4.98496 17.2765 5.19437 17.2283 5.41425L16.0831 11.0658H24.5699ZM10.2274 11.4936V22.8462H21.1028C21.2573 22.8462 21.4231 22.8013 21.6001 22.7116C21.7771 22.6218 21.9105 22.4723 22.0002 22.2629L25.2878 14.5045V12.771C25.2878 12.5715 25.218 12.402 25.0784 12.2624C24.9388 12.1228 24.7693 12.053 24.5699 12.053H14.894L16.2252 5.43143L10.2274 11.4936ZM5.84635 23.8334C5.37745 23.8334 4.97603 23.6645 4.64211 23.3267C4.30819 22.9889 4.14124 22.5894 4.14124 22.1283V12.771C4.14124 12.3098 4.30819 11.9103 4.64211 11.5725C4.97603 11.2347 5.37745 11.0658 5.84635 11.0658H9.24015V12.053H5.84635C5.63695 12.053 5.46495 12.1228 5.33033 12.2624C5.19572 12.402 5.12841 12.5715 5.12841 12.771V22.1283C5.12841 22.3377 5.19572 22.5097 5.33033 22.6443C5.46495 22.7789 5.63695 22.8462 5.84635 22.8462H9.24015V23.8334H5.84635Z" fill="#6E6F71"/>
</g>
</svg>
