<svg width="41" height="41" viewBox="0 0 41 41" fill="none" xmlns="http://www.w3.org/2000/svg">
<mask id="mask0_1030_4631" style="mask-type:alpha" maskUnits="userSpaceOnUse" x="0" y="0" width="41" height="41">
<rect x="0.645752" y="0.5" width="40" height="40" fill="#3B3DFF"/>
</mask>
<g mask="url(#mask0_1030_4631)">
<path d="M20.1458 17.0695V25.2222C20.1458 25.369 20.1925 25.489 20.2861 25.5823C20.3797 25.6756 20.5 25.7222 20.6472 25.7222C20.7944 25.7222 20.9212 25.6716 21.0277 25.5703C21.1342 25.469 21.1874 25.3391 21.1874 25.1805V17.0695L24.7013 20.5833C24.7939 20.6759 24.9073 20.7153 25.0416 20.7014C25.1758 20.6875 25.2893 20.6343 25.3819 20.5417C25.4745 20.4491 25.5208 20.338 25.5208 20.2083C25.5208 20.0787 25.4745 19.963 25.3819 19.8611L21.5069 16.0278C21.2754 15.7963 21.0022 15.6805 20.6874 15.6805C20.3726 15.6805 20.0995 15.7963 19.868 16.0278L15.993 19.9028C15.9004 20.0139 15.8541 20.125 15.8541 20.2361C15.8541 20.3472 15.9004 20.4491 15.993 20.5417C16.0856 20.6343 16.2013 20.6805 16.3402 20.6805C16.4791 20.6805 16.5902 20.6343 16.6735 20.5417L20.1458 17.0695ZM20.653 35C18.6482 35 16.7676 34.6196 15.0114 33.8587C13.2551 33.0978 11.7194 32.0606 10.4041 30.747C9.08888 29.4334 8.05034 27.8996 7.2885 26.1455C6.52667 24.3915 6.14575 22.5121 6.14575 20.5073C6.14575 18.5024 6.52618 16.6173 7.28704 14.8518C8.04793 13.0862 9.08517 11.5505 10.3988 10.2445C11.7124 8.9385 13.2462 7.90458 15.0002 7.14275C16.7542 6.38092 18.6337 6 20.6385 6C22.6433 6 24.5285 6.38043 26.294 7.14129C28.0595 7.90218 29.5953 8.93479 30.9013 10.2391C32.2073 11.5435 33.2412 13.0773 34.003 14.8406C34.7648 16.6039 35.1458 18.4879 35.1458 20.4928C35.1458 22.4976 34.7653 24.3781 34.0045 26.1344C33.2436 27.8906 32.211 29.4264 30.9066 30.7416C29.6023 32.0569 28.0684 33.0954 26.3052 33.8573C24.5419 34.6191 22.6578 35 20.653 35ZM20.6458 34C24.405 34 27.5948 32.6898 30.2152 30.0695C32.8356 27.4491 34.1458 24.2593 34.1458 20.5C34.1458 16.7407 32.8356 13.5509 30.2152 10.9305C27.5948 8.31018 24.405 7 20.6458 7C16.8865 7 13.6967 8.31018 11.0763 10.9305C8.45593 13.5509 7.14575 16.7407 7.14575 20.5C7.14575 24.2593 8.45593 27.4491 11.0763 30.0695C13.6967 32.6898 16.8865 34 20.6458 34Z" fill="#3B3DFF"/>
</g>
</svg>
