<svg width="41" height="40" viewBox="0 0 41 40" fill="none" xmlns="http://www.w3.org/2000/svg">
<mask id="mask0_1186_5680" style="mask-type:alpha" maskUnits="userSpaceOnUse" x="0" y="0" width="41" height="40">
<rect x="0.291748" width="40" height="40" fill="#9E9FA1"/>
</mask>
<g mask="url(#mask0_1186_5680)">
<path d="M19.7917 16.5695V24.7222C19.7917 24.869 19.8385 24.989 19.9321 25.0823C20.0257 25.1756 20.146 25.2222 20.2932 25.2222C20.4404 25.2222 20.5672 25.1716 20.6737 25.0703C20.7802 24.969 20.8334 24.8391 20.8334 24.6805V16.5695L24.3473 20.0833C24.4399 20.1759 24.5533 20.2153 24.6876 20.2014C24.8218 20.1875 24.9353 20.1343 25.0279 20.0417C25.1205 19.9491 25.1667 19.838 25.1667 19.7083C25.1667 19.5787 25.1205 19.463 25.0279 19.3611L21.1529 15.5278C20.9214 15.2963 20.6482 15.1805 20.3334 15.1805C20.0186 15.1805 19.7455 15.2963 19.514 15.5278L15.639 19.4028C15.5464 19.5139 15.5001 19.625 15.5001 19.7361C15.5001 19.8472 15.5464 19.9491 15.639 20.0417C15.7316 20.1343 15.8473 20.1805 15.9862 20.1805C16.1251 20.1805 16.2362 20.1343 16.3195 20.0417L19.7917 16.5695ZM20.299 34.5C18.2942 34.5 16.4136 34.1196 14.6574 33.3587C12.9011 32.5978 11.3654 31.5606 10.0501 30.247C8.73487 28.9334 7.69633 27.3996 6.9345 25.6455C6.17266 23.8915 5.79175 22.0121 5.79175 20.0073C5.79175 18.0024 6.17218 16.1173 6.93304 14.3518C7.69393 12.5862 8.73116 11.0505 10.0447 9.7445C11.3584 8.4385 12.8922 7.40458 14.6462 6.64275C16.4002 5.88092 18.2797 5.5 20.2845 5.5C22.2893 5.5 24.1745 5.88043 25.94 6.64129C27.7055 7.40218 29.2413 8.43479 30.5472 9.73913C31.8532 11.0435 32.8872 12.5773 33.649 14.3406C34.4108 16.1039 34.7917 17.9879 34.7917 19.9928C34.7917 21.9976 34.4113 23.8781 33.6505 25.6344C32.8896 27.3906 31.857 28.9264 30.5526 30.2416C29.2483 31.5569 27.7144 32.5954 25.9512 33.3573C24.1879 34.1191 22.3038 34.5 20.299 34.5ZM20.2917 33.5C24.051 33.5 27.2408 32.1898 29.8612 29.5695C32.4816 26.9491 33.7917 23.7593 33.7917 20C33.7917 16.2407 32.4816 13.0509 29.8612 10.4305C27.2408 7.81018 24.051 6.5 20.2917 6.5C16.5325 6.5 13.3427 7.81018 10.7223 10.4305C8.10193 13.0509 6.79175 16.2407 6.79175 20C6.79175 23.7593 8.10193 26.9491 10.7223 29.5695C13.3427 32.1898 16.5325 33.5 20.2917 33.5Z" fill="#9E9FA1"/>
</g>
</svg>
