<svg width="29" height="28" viewBox="0 0 29 28" fill="none" xmlns="http://www.w3.org/2000/svg">
<mask id="mask0_1030_4625" style="mask-type:alpha" maskUnits="userSpaceOnUse" x="0" y="0" width="29" height="28">
<rect x="0.822876" width="28" height="28" fill="#D9D9D9"/>
</mask>
<g mask="url(#mask0_1030_4625)">
<path d="M24.747 10.5658C25.1868 10.5658 25.5809 10.7401 25.9294 11.0886C26.2779 11.4371 26.4521 11.8312 26.4521 12.271V13.7289C26.4521 13.839 26.4479 13.9554 26.4394 14.0783C26.4309 14.2011 26.4058 14.3156 26.3639 14.4218L23.1351 22.0423C22.9738 22.4073 22.7016 22.7138 22.3187 22.9616C21.9357 23.2095 21.5474 23.3334 21.1535 23.3334H9.41728V10.5658L15.8489 4.05048C16.0028 3.89142 16.1831 3.79133 16.3899 3.75021C16.5967 3.70906 16.7885 3.73834 16.9655 3.83805C17.1395 3.93779 17.2684 4.08711 17.3521 4.28603C17.4359 4.48496 17.4536 4.69437 17.4054 4.91425L16.2602 10.5658H24.747ZM10.4045 10.9936V22.3462H21.2799C21.4345 22.3462 21.6002 22.3013 21.7772 22.2116C21.9542 22.1218 22.0876 21.9723 22.1773 21.7629L25.465 14.0045V12.271C25.465 12.0715 25.3952 11.902 25.2556 11.7624C25.116 11.6228 24.9464 11.553 24.747 11.553H15.0711L16.4023 4.93143L10.4045 10.9936ZM6.02347 23.3334C5.55457 23.3334 5.15316 23.1645 4.81924 22.8267C4.48532 22.4889 4.31836 22.0894 4.31836 21.6283V12.271C4.31836 11.8098 4.48532 11.4103 4.81924 11.0725C5.15316 10.7347 5.55457 10.5658 6.02347 10.5658H9.41728V11.553H6.02347C5.81407 11.553 5.64207 11.6228 5.50746 11.7624C5.37284 11.902 5.30553 12.0715 5.30553 12.271V21.6283C5.30553 21.8377 5.37284 22.0097 5.50746 22.1443C5.64207 22.2789 5.81407 22.3462 6.02347 22.3462H9.41728V23.3334H6.02347Z" fill="white"/>
</g>
</svg>
