<svg width="41" height="40" viewBox="0 0 41 40" fill="none" xmlns="http://www.w3.org/2000/svg">
<path d="M10.5 28.648V27.7095H12.7388V16.7151C12.7388 14.9944 13.3545 13.486 14.5858 12.1899C15.8172 10.8939 17.3657 10.1006 19.2313 9.81006V9.13966C19.2313 8.82308 19.3543 8.554 19.6001 8.33241C19.8459 8.1108 20.1444 8 20.4956 8C20.8468 8 21.1468 8.1108 21.3955 8.33241C21.6443 8.554 21.7687 8.82308 21.7687 9.13966V9.81006C23.6343 10.1006 25.1828 10.8939 26.4142 12.1899C27.6455 13.486 28.2612 14.9944 28.2612 16.7151V27.7095H30.5V28.648H10.5ZM20.4934 32C19.8759 32 19.3495 31.8031 18.9142 31.4092C18.4789 31.0154 18.2612 30.5419 18.2612 29.9888H22.7388C22.7388 30.5475 22.5189 31.0223 22.0792 31.4134C21.6395 31.8045 21.1109 32 20.4934 32ZM13.7836 27.7095H27.2164V16.7151C27.2164 15.0391 26.5634 13.6145 25.2575 12.4413C23.9515 11.2682 22.3657 10.6816 20.5 10.6816C18.6343 10.6816 17.0485 11.2682 15.7425 12.4413C14.4366 13.6145 13.7836 15.0391 13.7836 16.7151V27.7095Z" fill="#6E6F71"/>
</svg>
