<svg width="32" height="32" viewBox="0 0 32 32" fill="none" xmlns="http://www.w3.org/2000/svg">
<mask id="mask0_6569_3925" style="mask-type:alpha" maskUnits="userSpaceOnUse" x="0" y="0" width="32" height="32">
<rect width="32" height="32" fill="#D9D9D9"/>
</mask>
<g mask="url(#mask0_6569_3925)">
<path d="M12.6958 21.4069L24.6744 9.41119C24.7836 9.31432 24.9148 9.26162 25.0679 9.25309C25.2209 9.24453 25.3601 9.29762 25.4855 9.41235C25.5994 9.53849 25.6564 9.67652 25.6564 9.82645C25.6564 9.97639 25.5994 10.1083 25.4855 10.2223L13.3795 22.3283C13.1858 22.522 12.9579 22.6189 12.6958 22.6189C12.4336 22.6189 12.2057 22.522 12.012 22.3283L6.50942 16.8257C6.40115 16.7165 6.34403 16.5853 6.33805 16.4323C6.33207 16.2792 6.39215 16.14 6.51829 16.0146C6.64442 15.9007 6.7796 15.8437 6.92382 15.8437C7.06806 15.8437 7.20286 15.9007 7.32822 16.0146L12.6958 21.4069Z" fill="#3B3DFF"/>
</g>
</svg>
