<svg width="41" height="40" viewBox="0 0 41 40" fill="none" xmlns="http://www.w3.org/2000/svg">
<mask id="mask0_6569_3790" style="mask-type:alpha" maskUnits="userSpaceOnUse" x="0" y="0" width="41" height="40">
<rect x="0.5" width="40" height="40" fill="#D9D9D9"/>
</mask>
<g mask="url(#mask0_6569_3790)">
<path d="M20.5 27.4447C22.1203 27.4447 23.4837 26.8913 24.5904 25.7847C25.6968 24.6783 26.25 23.3149 26.25 21.6947C26.25 20.0741 25.6968 18.7106 24.5904 17.6042C23.4837 16.4979 22.1203 15.9447 20.5 15.9447C18.8797 15.9447 17.5162 16.4979 16.4096 17.6042C15.3032 18.7106 14.75 20.0741 14.75 21.6947C14.75 23.3149 15.3032 24.6783 16.4096 25.7847C17.5162 26.8913 18.8797 27.4447 20.5 27.4447ZM20.5 26.4447C19.1481 26.4447 18.0185 25.9909 17.1113 25.0834C16.2038 24.1759 15.75 23.0463 15.75 21.6947C15.75 20.3427 16.2038 19.213 17.1113 18.3055C18.0185 17.3983 19.1481 16.9447 20.5 16.9447C21.8519 16.9447 22.9815 17.3983 23.8888 18.3055C24.7963 19.213 25.25 20.3427 25.25 21.6947C25.25 23.0463 24.7963 24.1759 23.8888 25.0834C22.9815 25.9909 21.8519 26.4447 20.5 26.4447ZM8.33333 32.8334C7.67083 32.8334 7.11625 32.6102 6.66958 32.1638C6.22319 31.7172 6 31.1626 6 30.5001V12.8888C6 12.2222 6.22319 11.6666 6.66958 11.2222C7.11625 10.7777 7.67083 10.5555 8.33333 10.5555H13.3333L15.7221 7.903C15.926 7.67133 16.1761 7.49078 16.4725 7.36133C16.7689 7.23161 17.0929 7.16675 17.4446 7.16675H23.5554C23.9071 7.16675 24.2311 7.23161 24.5275 7.36133C24.8239 7.49078 25.074 7.67133 25.2779 7.903L27.6667 10.5555H32.6667C33.3333 10.5555 33.8889 10.7777 34.3333 11.2222C34.7778 11.6666 35 12.2222 35 12.8888V30.5001C35 31.1626 34.7778 31.7172 34.3333 32.1638C33.8889 32.6102 33.3333 32.8334 32.6667 32.8334H8.33333ZM8.33333 31.8334H32.6667C33.0556 31.8334 33.375 31.7084 33.625 31.4584C33.875 31.2084 34 30.889 34 30.5001V12.8888C34 12.5186 33.875 12.2038 33.625 11.9447C33.375 11.6852 33.0556 11.5555 32.6667 11.5555H27.2221L24.1388 8.16675H16.8613L13.7779 11.5555H8.33333C7.94444 11.5555 7.625 11.6852 7.375 11.9447C7.125 12.2038 7 12.5186 7 12.8888V30.5001C7 30.889 7.125 31.2084 7.375 31.4584C7.625 31.7084 7.94444 31.8334 8.33333 31.8334Z" fill="#6E6F71"/>
</g>
</svg>
